<?xml version="1.0" encoding="UTF-8"?><!DOCTYPE svg PUBLIC "-//W3C//DTD SVG 1.1//EN" "http://www.w3.org/Graphics/SVG/1.1/DTD/svg11.dtd"><svg xmlns="http://www.w3.org/2000/svg" xmlns:xlink="http://www.w3.org/1999/xlink" version="1.1" viewBox="0 0 600 600" width="150" height="150"><g transform="scale(25)"><path fill="#000000" d="M9,11H7V13H9V11M13,11H11V13H13V11M17,11H15V13H17V11M19,4H18V2H16V4H8V2H6V4H5C3.89,4 3,4.9 3,6V20A2,2 0 0,0 5,22H19A2,2 0 0,0 21,20V6A2,2 0 0,0 19,4M19,20H5V9H19V20Z" /></g></svg>