<?xml version="1.0" encoding="UTF-8"?><!DOCTYPE svg PUBLIC "-//W3C//DTD SVG 1.1//EN" "http://www.w3.org/Graphics/SVG/1.1/DTD/svg11.dtd"><svg xmlns="http://www.w3.org/2000/svg" xmlns:xlink="http://www.w3.org/1999/xlink" version="1.1" viewBox="0 0 600 600"><g transform="scale(25)"><path fill="#000000" d="M6,2A1,1 0 0,0 5,3V7H6V5H8V4H6V3H8V2H6M11,2A1,1 0 0,0 10,3V7H11V5H12V7H13V3A1,1 0 0,0 12,2H11M15,2L16.42,4.5L15,7H16.13L17,5.5L17.87,7H19L17.58,4.5L19,2H17.87L17,3.5L16.13,2H15M11,3H12V4H11V3M5,9A3,3 0 0,0 2,12V18H6V22H18V18H22V12A3,3 0 0,0 19,9H5M19,11A1,1 0 0,1 20,12A1,1 0 0,1 19,13A1,1 0 0,1 18,12A1,1 0 0,1 19,11M8,15H16V20H8V15Z" /></g></svg>